<svg version="1.1" xmlns="http://www.w3.org/2000/svg" xmlns:xlink="http://www.w3.org/1999/xlink" width="35.43437" height="35.89896"><g transform="translate(-222.4167,-162.23169)"><g data-paper-data="{&quot;isPaintingLayer&quot;:true}" fill="none" fill-rule="nonzero" stroke="none" stroke-width="none" stroke-linecap="butt" stroke-linejoin="miter" stroke-miterlimit="10" stroke-dasharray="" stroke-dashoffset="0" font-family="none" font-weight="none" font-size="none" text-anchor="none" style="mix-blend-mode: normal"><path d="M223.6667,183.2494v-6.21875h6.42604v6.21875z" data-paper-data="{&quot;origPos&quot;:null}" fill="#9a9a9a" stroke="#ffffff" stroke-width="2.5"/><path d="M250.17504,183.2244v-6.21875h6.42604v6.21875z" data-paper-data="{&quot;origPos&quot;:null}" fill="#9a9a9a" stroke="#ffffff" stroke-width="2.5"/><path d="M237.09066,196.88065v-6.21875h6.42604v6.21875z" data-paper-data="{&quot;origPos&quot;:null}" fill="#9a9a9a" stroke="#ffffff" stroke-width="2.5"/><path d="M236.85837,169.70044v-6.21875h6.42604v6.21875z" data-paper-data="{&quot;origPos&quot;:null}" fill="#9a9a9a" stroke="#ffffff" stroke-width="2.5"/><path d="M227.53024,180.06503c0,-6.86904 5.56846,-12.4375 12.4375,-12.4375c6.86904,0 12.4375,5.56846 12.4375,12.4375c0,6.86904 -5.56846,12.4375 -12.4375,12.4375c-6.86904,0 -12.4375,-5.56846 -12.4375,-12.4375z" data-paper-data="{&quot;origPos&quot;:null}" fill="#9a9a9a" stroke="#ffffff" stroke-width="2.5"/><path d="M225.35553,182.03615v-3.73496h5.1823v3.73496z" data-paper-data="{&quot;origPos&quot;:null}" fill="#9a9a9a" stroke="none" stroke-width="0"/><path d="M248.77957,181.94664v-3.73496h5.18229v3.73496z" data-paper-data="{&quot;origPos&quot;:null}" fill="#9a9a9a" stroke="none" stroke-width="0"/><path d="M241.91992,171.48736l-3.73485,-0.02812l0.03901,-5.18215l3.73486,0.02812z" data-paper-data="{&quot;origPos&quot;:null,&quot;origRot&quot;:0}" fill="#9a9a9a" stroke="none" stroke-width="0"/><path d="M242.13578,193.99529l-3.73485,-0.02811l0.03901,-5.18215l3.73486,0.02812z" data-paper-data="{&quot;origPos&quot;:null,&quot;origRot&quot;:0}" fill="#9a9a9a" stroke="none" stroke-width="0"/><path d="M235.32648,179.81241c0,-2.58599 2.09636,-4.68236 4.68235,-4.68236c2.58599,0 4.68236,2.09636 4.68236,4.68236c0,2.58599 -2.09636,4.68235 -4.68236,4.68235c-2.58599,0 -4.68235,-2.09636 -4.68235,-4.68235z" data-paper-data="{&quot;origPos&quot;:null}" fill="#000000" stroke="#ffffff" stroke-width="2.5"/></g></g></svg>