<svg version="1.1" xmlns="http://www.w3.org/2000/svg" xmlns:xlink="http://www.w3.org/1999/xlink" width="45.75" height="44"><g transform="translate(-226.25,-156.7)"><g data-paper-data="{&quot;isPaintingLayer&quot;:true}" fill="none" fill-rule="nonzero" stroke="#ffffff" stroke-width="2" stroke-linecap="none" stroke-linejoin="miter" stroke-miterlimit="10" stroke-dasharray="" stroke-dashoffset="0" font-family="none" font-weight="none" font-size="none" text-anchor="none" style="mix-blend-mode: normal"><path d="M227.25,180.45c0,-3.31371 2.68629,-6 6,-6c3.31371,0 6,2.68629 6,6c0,3.31371 -2.68629,6 -6,6c-3.31371,0 -6,-2.68629 -6,-6z" data-paper-data="{&quot;origPos&quot;:null}" fill="#949494" stroke-linecap="butt"/><path d="M250.5,163.2c0,0 11.33611,8.79781 11.25,16c-0.08744,7.31283 -9.75,15.75 -9.75,15.75l-16,-4.5c0,0 9.88314,-5.27501 9.75,-11c-0.13314,-5.72499 -10.25,-10.5 -10.25,-10.5z" data-paper-data="{&quot;origPos&quot;:null}" fill="#949494" stroke-linecap="round"/><path d="M255.75,160.2c0,0 10.15912,9.70531 10.5,18c0.34088,8.29469 -9,18.5 -9,18.5" data-paper-data="{&quot;origPos&quot;:null}" fill="none" stroke-linecap="round"/><path d="M260.5,157.7c0,0 10.15912,11.16776 10.5,20.71233c0.34088,9.54458 -9,21.28767 -9,21.28767" data-paper-data="{&quot;origPos&quot;:null}" fill="none" stroke-linecap="round"/></g></g></svg>