<svg version="1.1" xmlns="http://www.w3.org/2000/svg" xmlns:xlink="http://www.w3.org/1999/xlink" width="509.35814" height="388.8"><g transform="translate(2.35815,0)"><g data-paper-data="{&quot;isPaintingLayer&quot;:true}" fill="none" fill-rule="nonzero" stroke="none" stroke-width="none" stroke-linecap="butt" stroke-linejoin="miter" stroke-miterlimit="10" stroke-dasharray="" stroke-dashoffset="0" font-family="none" font-weight="none" font-size="none" text-anchor="none" style="mix-blend-mode: normal"><path d="M-2.35814,388.8v-388.8h509.35814v388.8z" data-paper-data="{&quot;origPos&quot;:null}" fill="#000000" stroke-width="0"/><text transform="translate(130,218.8) scale(0.5,0.5)" font-size="40" xml:space="preserve" data-paper-data="{&quot;origPos&quot;:null}" fill="#7cbebd" fill-rule="nonzero" stroke="none" stroke-width="1" stroke-linecap="butt" stroke-linejoin="miter" stroke-miterlimit="10" stroke-dasharray="" stroke-dashoffset="0" font-family="Sans Serif" font-weight="normal" text-anchor="start" style="mix-blend-mode: normal"><tspan x="0" dy="0">Your Score</tspan></text><text transform="translate(26,81.71027) scale(0.96256,0.96256)" font-size="40" xml:space="preserve" data-paper-data="{&quot;origPos&quot;:null}" fill="#7cbebd" fill-rule="nonzero" stroke="none" stroke-width="1" stroke-linecap="butt" stroke-linejoin="miter" stroke-miterlimit="10" stroke-dasharray="" stroke-dashoffset="0" font-family="Sans Serif" font-weight="normal" text-anchor="start" style="mix-blend-mode: normal"><tspan x="0" dy="0">Level</tspan></text><text transform="translate(23,78.71027) scale(0.96256,0.96256)" font-size="40" xml:space="preserve" data-paper-data="{&quot;origPos&quot;:null}" fill="#ffffff" fill-rule="nonzero" stroke="none" stroke-width="1" stroke-linecap="butt" stroke-linejoin="miter" stroke-miterlimit="10" stroke-dasharray="" stroke-dashoffset="0" font-family="Sans Serif" font-weight="normal" text-anchor="start" style="mix-blend-mode: normal"><tspan x="0" dy="0">Level</tspan></text><text transform="translate(128,216.8) scale(0.5,0.5)" font-size="40" xml:space="preserve" data-paper-data="{&quot;origPos&quot;:null}" fill="#ffffff" fill-rule="nonzero" stroke="none" stroke-width="1" stroke-linecap="butt" stroke-linejoin="miter" stroke-miterlimit="10" stroke-dasharray="" stroke-dashoffset="0" font-family="Sans Serif" font-weight="normal" text-anchor="start" style="mix-blend-mode: normal"><tspan x="0" dy="0">Your Score</tspan></text><text transform="translate(129,251.8) scale(0.5,0.5)" font-size="40" xml:space="preserve" data-paper-data="{&quot;origPos&quot;:null}" fill="#7cbebd" fill-rule="nonzero" stroke="none" stroke-width="1" stroke-linecap="butt" stroke-linejoin="miter" stroke-miterlimit="10" stroke-dasharray="" stroke-dashoffset="0" font-family="Sans Serif" font-weight="normal" text-anchor="start" style="mix-blend-mode: normal"><tspan x="0" dy="0">Highest Combo</tspan></text><text transform="translate(127,249.8) scale(0.5,0.5)" font-size="40" xml:space="preserve" data-paper-data="{&quot;origPos&quot;:null}" fill="#ffffff" fill-rule="nonzero" stroke="none" stroke-width="1" stroke-linecap="butt" stroke-linejoin="miter" stroke-miterlimit="10" stroke-dasharray="" stroke-dashoffset="0" font-family="Sans Serif" font-weight="normal" text-anchor="start" style="mix-blend-mode: normal"><tspan x="0" dy="0">Highest Combo</tspan></text><path d="M63.5,296.05001c0,2.5 -2.5,2.5 -2.5,2.5c-8.66667,0 -19.33333,0 -28,0c0,0 -0.18552,0 -0.45549,-0.05054c-2.0402,0.54278 -2.8657,-1.52098 -2.8657,-1.52098c-3.54109,-8.85275 -6.41219,-18.15851 -7.17099,-27.73092l0.06683,-0.59122c0,0 -0.60634,-2.42536 1.81902,-3.0317c2.42535,-0.60634 3.03169,1.81902 3.03169,1.81902l0.06683,1.40878c0.67552,8.52173 3.13456,16.77456 6.2096,24.69756c8.43274,0 16.86548,0 25.29822,0h2c0,0 2.5,0 2.5,2.5z" data-paper-data="{&quot;origPos&quot;:null}" fill="#7cbebd" stroke-width="0.5"/><path d="M33.52877,295.19723c-0.86539,-1.67555 -1.51459,-2.16634 -0.87203,-3.93932c1.14657,-3.16366 3.60231,-5.56617 5.10719,-8.57594c2.79245,-5.10924 7.1245,-8.39008 11.76999,-11.71067c4.42394,-3.16221 8.38534,-6.95223 12.9992,-9.86467c2.49558,-1.57531 3.80835,-1.6661 6.36725,-2.55181c3.54206,-1.226 6.51508,-3.43562 10.21722,-4.36116c9.21481,-2.3037 18.45764,-4.57475 27.88241,-5.89366c3.84767,-0.53844 8.11078,0 12,0c0.31597,0 0.61825,0.05862 0.89656,0.16557c0.71716,0.24366 1.60344,0.84591 1.60344,2.33443c0,1.48852 -0.88627,2.09076 -1.60344,2.33442c-0.27831,0.10695 -0.58059,0.16558 -0.89656,0.16558h-4v-0.12598c-2.69845,-0.12493 -5.45027,-0.24882 -8,0.12598c-9.00336,1.32345 -17.84717,3.53873 -26.66973,5.74437c-3.35493,0.83873 -6.01135,2.87093 -9.23064,4.00081c-1.46118,0.51283 -3.09027,0.52474 -4.49328,1.18018c-5.06616,2.36675 -9.40499,7.40229 -13.94895,10.65029c-3.74627,2.67782 -8.57282,5.56974 -10.42133,10.04238c0,0 -2.86137,5.95147 -5.24104,8.89578c-1.12756,1.3951 -2.31903,3.60465 -3.46626,1.38342z" data-paper-data="{&quot;origPos&quot;:null}" fill="#7cbebd" stroke-width="0.5"/><path d="M150.32269,316.68891c1.71109,1.82268 -0.11159,3.53377 -0.11159,3.53377l-0.64935,0.62949c-6.3912,5.11296 -13.94463,9.2197 -19.41801,15.33407c-0.45022,0.50295 -0.86452,1.07836 -1.25568,1.69087c0.44176,0 0.88352,0 1.32528,0c12.68073,0 25.36146,0 38.04219,0c16.11199,0 32.22397,0 48.33596,0c4.8832,0 9.8987,0.41044 14.76933,0c10.15186,-0.85547 20.31863,-3.2551 30.20758,-6.0016c10.17007,-2.82457 20.58991,-4.08524 30.61773,-7.47058c4.62511,-1.56142 10.13682,-2.49157 14.08951,-5.96538c2.90177,-2.3381 6.12579,-3.95248 9.05876,-6.20304c8.80937,-6.75968 16.94489,-17.08751 16.7151,-30.51824c0.02089,-9.22824 0.01125,-18.4567 0.01125,-27.68497c0,-3.1732 0.69693,-7.77745 0,-10.81856c-0.29714,-1.29658 -1.41104,-2.09322 -1.98375,-3.24689c-1.59033,-3.20352 -2.89965,-7.25037 -5.20893,-9.73538c-10.87639,-13.1455 -27.6795,-13.52319 -42.03839,-13.52319c-9.84622,0 -19.69243,0 -29.53864,0l-3.34267,-0.5c0,0 -2.08525,-2.66051 -1.4007,-3.61615c-0.44992,-0.40543 3.4007,-1.29313 3.4007,-1.29313c9.84622,0 21.03509,0 30.88131,0c15.62039,0 33.40603,0.84929 45.20308,15.10754c2.48897,3.20891 4.01062,7.00758 5.882,10.77726c0.81241,1.6365 2.23277,4.3335 2.62155,6.02994c0.69693,3.0411 0,7.64535 0,10.81856c0,9.23321 0.00964,18.46661 -0.01126,27.69977c-0.18486,12.0367 -5.1966,21.94476 -12.56227,29.67572c-4.57331,4.80012 -10.22411,7.51855 -15.20454,11.53154c-4.62606,3.53158 -9.95047,4.83865 -15.15681,6.59629c-10.17818,3.4361 -20.7154,4.74586 -31.0307,7.61077c-10.22065,2.83862 -20.71718,5.26706 -31.2099,6.139c-4.87206,0.40486 -9.88504,0 -14.76933,0c-16.11199,0 -32.22397,0 -48.33596,0c-12.68073,0 -25.36146,0 -38.04219,0h-4.47556c-0.03408,0 -0.06797,-0.00092 -0.10167,-0.00275c-0.56518,0.51691 -1.59906,1.08762 -2.9611,0.23635c-2.12,-1.325 -0.795,-3.44499 -0.795,-3.44499c1.25965,-2.01545 2.39458,-4.67499 3.97626,-6.46124c3.40159,-3.84152 7.7524,-7.88725 12.08199,-10.66593c1.4016,-0.89953 3.04843,-1.37458 4.4437,-2.2839c1.35396,-0.88239 2.72415,-2.65039 4.0563,-3.7161l0.35065,-0.37051c0,0 1.82269,-1.71109 3.53378,0.11159z" fill="#7cbebd" stroke-width="0.5"/><path d="M221.08013,64.41325c0.78876,1.18315 0.45593,2.14197 0.02222,2.74889l0.0758,-0.07605c-2.20325,5.50812 -4.55866,10.94825 -6.89548,16.40084c-2.21887,4.9816 -6.25698,10.31796 -11.28266,12.81306c-1.71885,0.85336 -6.15531,0 -8,0c-5.88929,0 -11.77857,0 -17.66786,0c-0.77114,1.50564 -1.49976,3.03101 -2.09607,4.61803c-0.38948,1.03655 -1.51474,4.75404 -0.73607,5.88197c0.1961,0.28406 0.74356,-0.18412 1.03553,0c0.9969,0.62865 1.88338,1.76778 3.06194,1.76791c4.32149,1.15815 8.66846,2.22164 13.00886,3.30674l2,0.5c0,0 2.71018,3.65038 0.43941,4.69613c-2.27077,1.04575 -1.65209,0.15458 -1.65209,0.15458l-2,-0.5c-4.36767,-1.09192 -8.74185,-2.16245 -13.0905,-3.32788c-1.17846,-0.43139 -2.4486,-0.66668 -3.53539,-1.29418c-9.27351,-5.35434 -1.199,-17.14288 2.01375,-23.58006c1.08246,-2.16886 1.69068,-4.33082 2.38717,-6.65248c0.10251,-0.34171 0.11051,-0.76512 0.14538,-1.1653l-1.92041,-0.4801l0.033,-0.13199l-0.92108,-0.26317l0.02369,-0.0829c-3.19417,-0.99064 -6.45291,-1.95803 -9.64438,-2.3953c-2.99023,-0.4097 -6.36281,-0.03531 -9.38678,-0.04498c-0.00282,-0.00001 -1.31667,-0.00205 -2.52412,-0.00393c0.01877,0.36258 -0.54326,0.8573 -0.60228,1.28748c-0.37125,2.70606 0.12829,5.94359 0.12829,8.70943c0,2 0,4 0,6c0,0.5 0.36493,1.1582 0,1.5c-3.54302,3.31846 -6.96815,3.17881 -11.31968,3.49349l-0.20246,-0.19266c0,0 -2.30083,0.97785 -3.27868,-1.32298c-0.97785,-2.30083 1.32298,-3.27868 1.32298,-3.27868l1.79754,-0.19266c0.8732,-0.06315 5.82162,-0.96222 6.35189,-0.62783c0.60524,0.38167 -0.00596,1.48873 0.32843,2.12132c0.23366,0.44204 0,-1 0,-1.5c0,-0.5 0,-1 0,-1.5c0,-1.5 0,-3 0,-4.5c0,-3.00229 -1.15771,-9.29886 0.62829,-11.79057c0.83683,-1.16748 1.65747,-2.44824 2.87562,-3.20943c1.08961,-0.68086 5.73067,0.01267 7.01752,0.01875c4.93075,0.02332 9.48562,0.73596 14.04862,1.79187c-0.26725,-1.31169 -0.26339,-2.6363 0.05824,-3.6012c1.22834,-2.34437 -0.31823,-4.34527 -0.62829,-6.70943c-0.16866,-1.28596 0.53976,-2.61466 0.26393,-3.88197c-0.60006,-2.75705 -2.90241,-4.26549 -4.22817,-6.54717c-0.65589,-1.12881 -0.50151,-2.63127 -1.21871,-3.72216c-2.30384,-3.50423 -7.29022,-6.49285 -10.7038,-8.76857c0,0 -2.08013,-1.38675 -0.69338,-3.46688c1.38675,-2.08013 3.46688,-0.69338 3.46688,-0.69338c3.64073,2.42716 8.8032,5.51984 11.2962,9.23143c1.13311,1.68698 1.50694,3.78688 2.4952,5.56261c0.9335,1.67733 2.72014,3.0524 3.62832,4.9458c3.10892,-4.29251 6.2623,-8.52987 10.53614,-11.73535c1.37492,-1.03123 2.50261,-2.83974 4.21654,-2.96738c2.0431,-0.15215 3.9939,1.04216 5.82498,1.96116c1.33343,0.66923 3.27361,0.928 5.23896,0.92325l0.60915,-0.60915c0.21486,-0.21486 0.46864,-0.39079 0.74986,-0.5163c0.67937,-0.33516 1.73252,-0.53685 2.78567,0.5163c0.06511,0.06511 0.12542,0.13021 0.1812,0.19523c0.53144,-0.10379 1.01938,-0.22301 1.4447,-0.35282c0.66667,-0.16667 1.48166,-0.04884 2,-0.5c0.23538,-0.20487 -0.41982,-0.46179 -0.62973,-0.69268l1,-2c0,0 3.24654,-2.27002 4.43533,-0.07076c1.18879,2.19927 0.0368,2.30683 0.0368,2.30683l-1,2c-1.24352,1.56393 -2.69133,3.32272 -4.62973,3.80732c-1.09398,0.2412 -2.30783,0.45107 -3.57195,0.59604l-0.52056,1.04112c0.50175,2.32444 -0.27236,5.07087 -0.01383,7.43748c0.01632,0.14935 0.23558,0.80452 0.45968,1.5h1.04032c0,0 2.79078,4.67061 0.31009,4.98069c-2.48069,0.31009 -0.31009,0.01931 -0.31009,0.01931h-1.5c-1.30845,-0.63122 -2.83468,-0.93402 -3.92536,-1.89366c-1.18372,-1.0415 -0.89832,-3.03955 -1.07464,-4.60634c-0.29767,-2.64511 -0.46745,-5.63689 0.06224,-8.34815c-1.36992,-0.11453 -2.68351,-0.36044 -3.85281,-0.78014c-0.09259,-0.03323 -3.5388,-1.15783 -3.59555,-1.78844c-0.01071,-0.11901 0.06582,-0.24679 0.188,-0.37152c-5.18766,3.21624 -8.80195,7.91406 -12.34317,12.75728l0.04129,0.03097l-1.0118,1.34906l0.24237,3.35153l-2.64034,0.19094c0.20797,0.61814 0.67412,1.17016 0.78148,1.8179c0.37018,2.23332 0.0867,3.9422 -0.5,6.08114c-0.16667,0.5 -0.67688,1.00352 -0.5,1.5c0.11863,0.33296 0.8011,-0.17556 1.05826,0.06692c0.60631,0.57169 0.6201,1.64303 1.28624,2.14373c0.25281,0.19002 0.15573,-0.77119 0.46725,-0.82573c0.73621,-0.12892 1.8348,-0.28795 2.21376,0.35627c0.41448,0.70459 0.68398,1.48019 0.86718,2.28631c0.20136,0.36287 0.31485,0.82154 0.23929,1.39497c0.07987,0.63496 0.12854,1.27435 0.17251,1.89989c0.11686,1.66256 -0.95783,3.19275 -1.43674,4.78913c-0.58543,1.95142 -1.40413,3.79372 -2.30405,5.59793c5.02153,0 10.04306,0 15.06459,0c2.16667,0 4.33333,0 6.5,0c0.5,0 1.08853,0.28406 1.5,0c0.28406,-0.1961 -0.18412,-0.74356 0,-1.03553c2.09865,-3.32801 5.12103,-4.87675 6.68694,-8.74713c2.32081,-5.41522 4.66069,-10.81786 6.84883,-16.2882l1.07749,-1.50927c0,0 2.08013,-1.38675 3.46688,0.69338z" data-paper-data="{&quot;origPos&quot;:null}" fill="#bb0000" stroke-width="0.5"/><path d="M152.18341,358.11767c-1.21767,2.18341 -3.40108,0.96574 -3.40108,0.96574l-1.5729,-0.3117c-0.5,-0.16667 -1,-0.33333 -1.5,-0.5c-3.94544,-1.3261 -7.08866,-3.58649 -10.63791,-5.55052c-2.9292,-1.62091 -6.36083,-2.62355 -9.0237,-4.75945c-1.3204,-1.0591 -2.1247,-2.49439 -3.54783,-3.56174c0,0 -2,-1.5 -0.5,-3.5c1.5,-2 3.5,-0.5 3.5,-0.5c1.72315,1.29236 2.83134,3.14843 4.45217,4.43826c1.77377,1.41154 4.90677,2.08811 6.9763,3.24055c3.4752,1.9352 6.52792,4.18423 10.36209,5.44948c0.5,0.16667 1,0.33333 1.5,0.5l2.4271,0.6883c0,0 2.18341,1.21767 0.96574,3.40108z" fill="#7cbebd" stroke-width="0.5"/><text transform="translate(128.36716,80.1513) rotate(3.70946) scale(0.96256,0.96256)" font-size="40" xml:space="preserve" data-paper-data="{&quot;origPos&quot;:null,&quot;origRot&quot;:2.30364}" fill="#494949" fill-rule="nonzero" stroke="none" stroke-width="1" stroke-linecap="butt" stroke-linejoin="miter" stroke-miterlimit="10" stroke-dasharray="" stroke-dashoffset="0" font-family="Sans Serif" font-weight="normal" text-anchor="start" style="mix-blend-mode: normal"><tspan x="0" dy="0">Failed</tspan></text><text transform="translate(126.36716,77.1513) rotate(3.70946) scale(0.96256,0.96256)" font-size="40" xml:space="preserve" data-paper-data="{&quot;origPos&quot;:null,&quot;origRot&quot;:2.30364}" fill="#ff0000" fill-rule="nonzero" stroke="none" stroke-width="1" stroke-linecap="butt" stroke-linejoin="miter" stroke-miterlimit="10" stroke-dasharray="" stroke-dashoffset="0" font-family="Sans Serif" font-weight="normal" text-anchor="start" style="mix-blend-mode: normal"><tspan x="0" dy="0">Failed</tspan></text></g></g></svg>