<svg version="1.1" xmlns="http://www.w3.org/2000/svg" xmlns:xlink="http://www.w3.org/1999/xlink" width="509.35814" height="388.8"><g transform="translate(2.35814,0)"><g data-paper-data="{&quot;isPaintingLayer&quot;:true}" fill="none" fill-rule="nonzero" stroke="none" stroke-width="none" stroke-linecap="none" stroke-linejoin="miter" stroke-miterlimit="10" stroke-dasharray="" stroke-dashoffset="0" font-family="none" font-weight="none" font-size="none" text-anchor="none" style="mix-blend-mode: normal"><path d="M-2.35814,388.8v-388.8h509.35814v388.8z" data-paper-data="{&quot;origPos&quot;:null}" fill="#000000" stroke="none" stroke-width="0" stroke-linecap="butt"/><text transform="translate(130,218.8) scale(0.5,0.5)" font-size="40" xml:space="preserve" data-paper-data="{&quot;origPos&quot;:null}" fill="#7cbebd" fill-rule="nonzero" stroke="none" stroke-width="1" stroke-linecap="butt" stroke-linejoin="miter" stroke-miterlimit="10" stroke-dasharray="" stroke-dashoffset="0" font-family="Sans Serif" font-weight="normal" text-anchor="start" style="mix-blend-mode: normal"><tspan x="0" dy="0">Your Score</tspan></text><text transform="translate(26,81.71027) scale(0.96256,0.96256)" font-size="40" xml:space="preserve" data-paper-data="{&quot;origPos&quot;:null}" fill="#7cbebd" fill-rule="nonzero" stroke="none" stroke-width="1" stroke-linecap="butt" stroke-linejoin="miter" stroke-miterlimit="10" stroke-dasharray="" stroke-dashoffset="0" font-family="Sans Serif" font-weight="normal" text-anchor="start" style="mix-blend-mode: normal"><tspan x="0" dy="0">Level Complete!</tspan></text><text transform="translate(23,78.71027) scale(0.96256,0.96256)" font-size="40" xml:space="preserve" data-paper-data="{&quot;origPos&quot;:null}" fill="#ffffff" fill-rule="nonzero" stroke="none" stroke-width="1" stroke-linecap="butt" stroke-linejoin="miter" stroke-miterlimit="10" stroke-dasharray="" stroke-dashoffset="0" font-family="Sans Serif" font-weight="normal" text-anchor="start" style="mix-blend-mode: normal"><tspan x="0" dy="0">Level Complete!</tspan></text><text transform="translate(128,216.8) scale(0.5,0.5)" font-size="40" xml:space="preserve" data-paper-data="{&quot;origPos&quot;:null}" fill="#ffffff" fill-rule="nonzero" stroke="none" stroke-width="1" stroke-linecap="butt" stroke-linejoin="miter" stroke-miterlimit="10" stroke-dasharray="" stroke-dashoffset="0" font-family="Sans Serif" font-weight="normal" text-anchor="start" style="mix-blend-mode: normal"><tspan x="0" dy="0">Your Score</tspan></text><text transform="translate(129,251.8) scale(0.5,0.5)" font-size="40" xml:space="preserve" data-paper-data="{&quot;origPos&quot;:null}" fill="#7cbebd" fill-rule="nonzero" stroke="none" stroke-width="1" stroke-linecap="butt" stroke-linejoin="miter" stroke-miterlimit="10" stroke-dasharray="" stroke-dashoffset="0" font-family="Sans Serif" font-weight="normal" text-anchor="start" style="mix-blend-mode: normal"><tspan x="0" dy="0">Highest Combo</tspan></text><text transform="translate(127,249.8) scale(0.5,0.5)" font-size="40" xml:space="preserve" data-paper-data="{&quot;origPos&quot;:null}" fill="#ffffff" fill-rule="nonzero" stroke="none" stroke-width="1" stroke-linecap="butt" stroke-linejoin="miter" stroke-miterlimit="10" stroke-dasharray="" stroke-dashoffset="0" font-family="Sans Serif" font-weight="normal" text-anchor="start" style="mix-blend-mode: normal"><tspan x="0" dy="0">Highest Combo</tspan></text><path d="M63.5,296.05001c0,2.5 -2.5,2.5 -2.5,2.5c-8.66667,0 -19.33333,0 -28,0c0,0 -0.18552,0 -0.45549,-0.05054c-2.0402,0.54278 -2.8657,-1.52098 -2.8657,-1.52098c-3.54109,-8.85275 -6.41219,-18.15851 -7.17099,-27.73092l0.06683,-0.59122c0,0 -0.60634,-2.42536 1.81902,-3.0317c2.42535,-0.60634 3.03169,1.81902 3.03169,1.81902l0.06683,1.40878c0.67552,8.52173 3.13456,16.77456 6.2096,24.69756c8.43274,0 16.86548,0 25.29822,0h2c0,0 2.5,0 2.5,2.5z" data-paper-data="{&quot;origPos&quot;:null}" fill="#7cbebd" stroke="none" stroke-width="0.5" stroke-linecap="butt"/><path d="M33.52877,295.19723c-0.86539,-1.67555 -1.51459,-2.16634 -0.87203,-3.93932c1.14657,-3.16366 3.60231,-5.56617 5.10719,-8.57594c2.79245,-5.10924 7.1245,-8.39008 11.76999,-11.71067c4.42394,-3.16221 8.38534,-6.95223 12.9992,-9.86467c2.49558,-1.57531 3.80835,-1.6661 6.36725,-2.55181c3.54206,-1.226 6.51508,-3.43562 10.21722,-4.36116c9.21481,-2.3037 18.45764,-4.57475 27.88241,-5.89366c3.84767,-0.53844 8.11078,0 12,0c0.31597,0 0.61825,0.05862 0.89656,0.16557c0.71716,0.24366 1.60344,0.84591 1.60344,2.33443c0,1.48852 -0.88627,2.09076 -1.60344,2.33442c-0.27831,0.10695 -0.58059,0.16558 -0.89656,0.16558h-4v-0.12598c-2.69845,-0.12493 -5.45027,-0.24882 -8,0.12598c-9.00336,1.32345 -17.84717,3.53873 -26.66973,5.74437c-3.35493,0.83873 -6.01135,2.87093 -9.23064,4.00081c-1.46118,0.51283 -3.09027,0.52474 -4.49328,1.18018c-5.06616,2.36675 -9.40499,7.40229 -13.94895,10.65029c-3.74627,2.67782 -8.57282,5.56974 -10.42133,10.04238c0,0 -2.86137,5.95147 -5.24104,8.89578c-1.12756,1.3951 -2.31903,3.60465 -3.46626,1.38342z" data-paper-data="{&quot;origPos&quot;:null}" fill="#7cbebd" stroke="none" stroke-width="0.5" stroke-linecap="butt"/><path d="M150.32269,316.68891c1.71109,1.82268 -0.11159,3.53377 -0.11159,3.53377l-0.64935,0.62949c-6.3912,5.11296 -13.94463,9.2197 -19.41801,15.33407c-0.45022,0.50295 -0.86452,1.07836 -1.25568,1.69087c0.44176,0 0.88352,0 1.32528,0c12.68073,0 25.36146,0 38.04219,0c16.11199,0 32.22397,0 48.33596,0c4.8832,0 9.8987,0.41044 14.76933,0c10.15186,-0.85547 20.31863,-3.2551 30.20758,-6.0016c10.17007,-2.82457 20.58991,-4.08524 30.61773,-7.47058c4.62511,-1.56142 10.13682,-2.49157 14.08951,-5.96538c2.90177,-2.3381 6.12579,-3.95248 9.05876,-6.20304c8.80937,-6.75968 16.94489,-17.08751 16.7151,-30.51824c0.02089,-9.22824 0.01125,-18.4567 0.01125,-27.68497c0,-3.1732 0.69693,-7.77745 0,-10.81856c-0.29714,-1.29658 -1.41104,-2.09322 -1.98375,-3.24689c-1.59033,-3.20352 -2.89965,-7.25037 -5.20893,-9.73538c-10.87639,-13.1455 -27.6795,-13.52319 -42.03839,-13.52319c-9.84622,0 -19.69243,0 -29.53864,0l-3.34267,-0.5c0,0 -2.08525,-2.66051 -1.4007,-3.61615c-0.44992,-0.40543 3.4007,-1.29313 3.4007,-1.29313c9.84622,0 21.03509,0 30.88131,0c15.62039,0 33.40603,0.84929 45.20308,15.10754c2.48897,3.20891 4.01062,7.00758 5.882,10.77726c0.81241,1.6365 2.23277,4.3335 2.62155,6.02994c0.69693,3.0411 0,7.64535 0,10.81856c0,9.23321 0.00964,18.46661 -0.01126,27.69977c-0.18486,12.0367 -5.1966,21.94476 -12.56227,29.67572c-4.57331,4.80012 -10.22411,7.51855 -15.20454,11.53154c-4.62606,3.53158 -9.95047,4.83865 -15.15681,6.59629c-10.17818,3.4361 -20.7154,4.74586 -31.0307,7.61077c-10.22065,2.83862 -20.71718,5.26706 -31.2099,6.139c-4.87206,0.40486 -9.88504,0 -14.76933,0c-16.11199,0 -32.22397,0 -48.33596,0c-12.68073,0 -25.36146,0 -38.04219,0h-4.47556c-0.03408,0 -0.06797,-0.00092 -0.10167,-0.00275c-0.56518,0.51691 -1.59906,1.08762 -2.9611,0.23635c-2.12,-1.325 -0.795,-3.44499 -0.795,-3.44499c1.25965,-2.01545 2.39458,-4.67499 3.97626,-6.46124c3.40159,-3.84152 7.7524,-7.88725 12.08199,-10.66593c1.4016,-0.89953 3.04843,-1.37458 4.4437,-2.2839c1.35396,-0.88239 2.72415,-2.65039 4.0563,-3.7161l0.35065,-0.37051c0,0 1.82269,-1.71109 3.53378,0.11159z" fill="#7cbebd" stroke="none" stroke-width="0.5" stroke-linecap="butt"/><path d="M152.18341,358.11767c-1.21767,2.18341 -3.40108,0.96574 -3.40108,0.96574l-1.5729,-0.3117c-0.5,-0.16667 -1,-0.33333 -1.5,-0.5c-3.94544,-1.3261 -7.08866,-3.58649 -10.63791,-5.55052c-2.9292,-1.62091 -6.36083,-2.62355 -9.0237,-4.75945c-1.3204,-1.0591 -2.1247,-2.49439 -3.54783,-3.56174c0,0 -2,-1.5 -0.5,-3.5c1.5,-2 3.5,-0.5 3.5,-0.5c1.72315,1.29236 2.83134,3.14843 4.45217,4.43826c1.77377,1.41154 4.90677,2.08811 6.9763,3.24055c3.4752,1.9352 6.52792,4.18423 10.36209,5.44948c0.5,0.16667 1,0.33333 1.5,0.5l2.4271,0.6883c0,0 2.18341,1.21767 0.96574,3.40108z" fill="#7cbebd" stroke="none" stroke-width="0.5" stroke-linecap="butt"/><path d="M373.98962,81.45665l-105.35563,40.76887l-22.74839,-4.29374l19.03844,18.62865l-2.23311,25.90274l11.56667,-18.29382l105.65419,-42.17091l23.2795,1.64337l-18.6023,-14.03787l4.10717,-29.31955z" data-paper-data="{&quot;origPos&quot;:null,&quot;origRot&quot;:0}" fill="#ffee00" stroke="#9f9400" stroke-width="5" stroke-linecap="round"/><text transform="translate(269.17728,140.50672) rotate(-22.11996) scale(0.39763,0.39763)" font-size="40" xml:space="preserve" data-paper-data="{&quot;origPos&quot;:null,&quot;origRot&quot;:-18.760089822531295}" fill="#000000" fill-rule="nonzero" stroke="none" stroke-width="1" stroke-linecap="butt" stroke-linejoin="miter" stroke-miterlimit="10" stroke-dasharray="" stroke-dashoffset="0" font-family="Sans Serif" font-weight="normal" text-anchor="start" style="mix-blend-mode: normal"><tspan x="0" dy="0">New Highscore!</tspan></text></g></g></svg>