<svg version="1.1" xmlns="http://www.w3.org/2000/svg" xmlns:xlink="http://www.w3.org/1999/xlink" width="23.18715" height="28.64642" viewBox="0,0,23.18715,28.64642"><g transform="translate(-226.76874,-169.285)"><g data-paper-data="{&quot;isPaintingLayer&quot;:true}" fill="#ff0000" fill-rule="nonzero" stroke="none" stroke-width="none" stroke-linecap="butt" stroke-linejoin="miter" stroke-miterlimit="10" stroke-dasharray="" stroke-dashoffset="0" font-family="none" font-weight="none" font-size="none" text-anchor="none" style="mix-blend-mode: normal"><path d="M235.32016,185.50952c-2.41116,1.09821 -5.97873,4.67097 -7.29516,-0.22452c-0.2155,-0.80139 1.42442,-2.43886 2.125,-2.8125c1.57935,-0.84232 3.88089,-1.49816 5.74004,-2.47403c-0.7749,-1.04979 -1.51845,-2.18626 -2.26211,-3.45411c-0.32624,-0.55621 -3.35095,-5.04621 -1.63247,-6.02819c0.43488,-0.73685 1.23698,-1.23117 2.15454,-1.23117c1.28904,0 2.35023,0.9756 2.48545,2.22871c1.10244,1.47843 1.80145,3.25669 2.84845,5.08436c1.10764,-1.57292 2.11866,-3.25681 3.62986,-4.4568c0.67126,-0.53302 3.84574,-2.59588 4.68007,-1.13581c0.73685,0.43488 1.23117,1.23698 1.23117,2.15454c0,1.02087 -0.61189,1.89882 -1.48893,2.28711c-1.30581,1.78778 -2.89652,3.50775 -4.64581,5.05312c0.86258,0.68478 1.75485,1.32363 2.65728,2.18846c1.86277,1.78515 6.40018,4.89257 1.24221,6.61189c-1.37475,0.45825 -3.3288,-1.8087 -4.28372,-2.57561c-1.33415,-1.07148 -2.51324,-2.11211 -3.59181,-3.19937c-1.18211,0.76582 -2.39008,1.43554 -3.59406,1.98392z" stroke-width="0.5"/><text transform="translate(226.9,194.65002) scale(0.26251,0.26251)" font-size="40" xml:space="preserve" data-paper-data="{&quot;origPos&quot;:null}" fill="#ff0000" fill-rule="nonzero" stroke="none" stroke-width="1" stroke-linecap="butt" stroke-linejoin="miter" stroke-miterlimit="10" stroke-dasharray="" stroke-dashoffset="0" font-family="Sans Serif" font-weight="normal" text-anchor="start" style="mix-blend-mode: normal"><tspan x="0" dy="0">Miss</tspan></text></g></g></svg>