<svg version="1.1" xmlns="http://www.w3.org/2000/svg" xmlns:xlink="http://www.w3.org/1999/xlink" width="63.00625" height="55.00624" viewBox="0,0,63.00625,55.00624"><g transform="translate(-209.49375,-149.89376)"><g data-paper-data="{&quot;isPaintingLayer&quot;:true}" fill="none" fill-rule="nonzero" stroke="#878787" stroke-width="5" stroke-linecap="none" stroke-linejoin="miter" stroke-miterlimit="10" stroke-dasharray="" stroke-dashoffset="0" font-family="none" font-weight="none" font-size="none" text-anchor="none" style="mix-blend-mode: normal"><path d="M224,179.4c0,-12.70255 10.29745,-23 23,-23c12.70255,0 23,10.29745 23,23c0,12.70255 -10.29745,23 -23,23c-12.70255,0 -23,-10.29745 -23,-23z" data-paper-data="{&quot;origPos&quot;:null}" fill="#002c2c" stroke-linecap="butt"/><path d="M239.5,178.9c0,-4.14214 3.35787,-7.5 7.5,-7.5c4.14213,0 7.5,3.35786 7.5,7.5c0,4.14214 -3.35787,7.5 -7.5,7.5c-4.14213,0 -7.5,-3.35787 -7.5,-7.5z" data-paper-data="{&quot;origPos&quot;:null}" fill="#000000" stroke-linecap="butt"/><path d="M250.5,163.4c0,0 4.4289,1.52951 6.30355,3.14852c2.41824,2.08848 4.69645,6.35148 4.69645,6.35148" data-paper-data="{&quot;origPos&quot;:null}" fill="none" stroke-linecap="round"/><path d="M227.04355,196.97997c-11.91828,-4.39422 -18.01774,-17.61813 -13.62352,-29.53641c4.39422,-11.91828 17.61813,-18.01774 29.53641,-13.62352c11.91828,4.39422 18.01774,17.61813 13.62352,29.53641c-4.39422,11.91828 -17.61813,18.01774 -29.53641,13.62352z" data-paper-data="{&quot;origPos&quot;:null,&quot;origRot&quot;:0}" fill="#002c2c" stroke-linecap="butt"/><path d="M231.93638,182.26398c-3.8864,-1.4329 -5.87535,-5.74505 -4.44245,-9.63144c1.4329,-3.88639 5.74504,-5.87535 9.63144,-4.44245c3.8864,1.4329 5.87535,5.74505 4.44245,9.63144c-1.4329,3.88639 -5.74505,5.87535 -9.63144,4.44245z" data-paper-data="{&quot;origPos&quot;:null,&quot;origRot&quot;:0}" fill="#000000" stroke-linecap="butt"/><path d="M221.19862,166.58117c0,0 2.96718,-3.62635 5.13473,-4.82519c2.79608,-1.54647 7.58399,-2.2093 7.58399,-2.2093" data-paper-data="{&quot;origPos&quot;:null,&quot;origRot&quot;:0}" fill="none" stroke-linecap="round"/></g></g></svg>