<svg version="1.1" xmlns="http://www.w3.org/2000/svg" xmlns:xlink="http://www.w3.org/1999/xlink" width="31.61943" height="31.77353" viewBox="0,0,31.61943,31.77353"><g transform="translate(-224.36193,-164.33251)"><g data-paper-data="{&quot;isPaintingLayer&quot;:true}" fill="none" fill-rule="nonzero" stroke="none" stroke-width="none" stroke-linecap="butt" stroke-linejoin="miter" stroke-miterlimit="10" stroke-dasharray="" stroke-dashoffset="0" font-family="none" font-weight="none" font-size="none" text-anchor="none" style="mix-blend-mode: normal"><path d="M226.36372,170.64362l4.41738,-4.37717l4.52307,4.56462l-4.41738,4.37717z" data-paper-data="{&quot;origPos&quot;:null,&quot;origRot&quot;:0}" fill="#9a9a9a" stroke="#ffffff" stroke-width="2.5"/><path d="M245.03981,189.45575l4.41738,-4.37717l4.52307,4.56462l-4.41738,4.37717z" data-paper-data="{&quot;origPos&quot;:null,&quot;origRot&quot;:0}" fill="#9a9a9a" stroke="#ffffff" stroke-width="2.5"/><path d="M226.12968,189.77367l4.41738,-4.37717l4.52307,4.56462l-4.41738,4.37717z" data-paper-data="{&quot;origPos&quot;:null,&quot;origRot&quot;:0}" fill="#9a9a9a" stroke="#ffffff" stroke-width="2.5"/><path d="M245.27316,170.47743l4.41738,-4.37717l4.52307,4.56462l-4.41738,4.37717z" data-paper-data="{&quot;origPos&quot;:null,&quot;origRot&quot;:0}" fill="#9a9a9a" stroke="#ffffff" stroke-width="2.5"/><path d="M231.3451,171.14664c4.8793,-4.83489 12.75421,-4.79888 17.5891,0.08042c4.83489,4.8793 4.79888,12.75421 -0.08042,17.5891c-4.8793,4.83489 -12.75421,4.79888 -17.5891,-0.08042c-4.83489,-4.8793 -4.79888,-12.75421 0.08042,-17.5891z" data-paper-data="{&quot;origPos&quot;:null,&quot;origRot&quot;:0}" fill="#9a9a9a" stroke="#ffffff" stroke-width="2.5"/><path d="M228.41425,170.98928l2.65306,-2.62891l3.64765,3.68115l-2.65306,2.62891z" data-paper-data="{&quot;origPos&quot;:null,&quot;origRot&quot;:0}" fill="#9a9a9a" stroke="none" stroke-width="0"/><path d="M244.96522,187.56513l2.65306,-2.62891l3.64764,3.68115l-2.65306,2.62891z" data-paper-data="{&quot;origPos&quot;:null,&quot;origRot&quot;:0}" fill="#9a9a9a" stroke="none" stroke-width="0"/><path d="M247.56651,175.33056l-2.60886,-2.67278l3.70851,-3.61983l2.60887,2.67278z" data-paper-data="{&quot;origPos&quot;:null,&quot;origRot&quot;:0}" fill="#9a9a9a" stroke="none" stroke-width="0"/><path d="M231.73034,191.32647l-2.60887,-2.67277l3.70851,-3.61983l2.60887,2.67278z" data-paper-data="{&quot;origPos&quot;:null,&quot;origRot&quot;:0}" fill="#9a9a9a" stroke="none" stroke-width="0"/><path d="M237.01206,176.50675c1.83691,-1.82019 4.80159,-1.80664 6.62178,0.03027c1.82019,1.83691 1.80664,4.80159 -0.03027,6.62179c-1.83691,1.82019 -4.80158,1.80664 -6.62178,-0.03028c-1.82019,-1.83691 -1.80664,-4.80158 0.03027,-6.62177z" data-paper-data="{&quot;origPos&quot;:null,&quot;origRot&quot;:0}" fill="#000000" stroke="#ffffff" stroke-width="2.5"/></g></g></svg>